<?xml version="1.0" encoding="utf-8"?>
<!-- Generator: Adobe Illustrator 24.1.2, SVG Export Plug-In . SVG Version: 6.00 Build 0)  -->
<svg version="1.1" id="Layer_1" xmlns="http://www.w3.org/2000/svg" xmlns:xlink="http://www.w3.org/1999/xlink" x="0px" y="0px"
	 viewBox="0 0 1280 278" style="enable-background:new 0 0 1280 278;" xml:space="preserve">
<style type="text/css">
	.st0{fill:#252847;}
	.st1{fill:#EB5A47;}
</style>
<g>
	<g>
		<path class="st0" d="M44.23,157.06c3.55-8.33,8.43-15.59,14.65-21.81c6.21-6.21,13.49-11.1,21.81-14.65
			c8.33-3.55,17.26-5.33,26.81-5.33v30.3c-5.29,0-10.18,1-14.69,3c-4.51,2-8.53,4.78-12.05,8.33c-3.52,3.55-6.28,7.61-8.25,12.15
			c-1.98,4.55-2.97,9.49-2.97,14.82v9.66v17.98v36.63H38.9v-64.27C38.9,174.32,40.68,165.38,44.23,157.06z"/>
	</g>
	<g>
		<path class="st0" d="M538.63,110.19c9.58,0,18.55,1.79,26.91,5.36c8.36,3.57,15.67,8.49,21.95,14.76
			c6.27,6.27,11.19,13.58,14.76,21.95s5.36,17.33,5.36,26.91c0,9.58-1.79,18.55-5.36,26.91s-8.49,15.68-14.76,21.95
			c-6.27,6.27-13.58,11.19-21.95,14.76c-8.36,3.57-17.33,5.36-26.91,5.36c-9.58,0-18.55-1.78-26.91-5.36
			c-8.36-3.57-15.68-8.49-21.95-14.76c-6.27-6.27-11.19-13.59-14.76-21.95c-3.57-8.36-5.36-17.33-5.36-26.91
			c0-9.58,1.78-18.55,5.36-26.91c3.57-8.36,8.49-15.67,14.76-21.95c6.27-6.27,13.59-11.19,21.95-14.76
			C520.08,111.97,529.05,110.19,538.63,110.19z M538.76,221.22c5.73,0,11.15-1.09,16.28-3.27c5.12-2.17,9.59-5.18,13.42-9.01
			c3.82-3.83,6.81-8.32,8.98-13.46c2.17-5.13,3.26-10.58,3.26-16.33c0-5.75-1.08-11.19-3.26-16.33c-2.17-5.14-5.17-9.62-8.98-13.46
			c-3.82-3.83-8.29-6.83-13.42-9.01c-5.12-2.18-10.55-3.27-16.28-3.27c-5.73,0-11.16,1.09-16.28,3.27
			c-5.12,2.18-9.59,5.18-13.41,9.01c-3.82,3.83-6.86,8.32-9.12,13.46c-2.26,5.14-3.38,10.58-3.38,16.33c0,5.75,1.13,11.2,3.38,16.33
			c2.26,5.14,5.29,9.63,9.12,13.46c3.82,3.83,8.29,6.84,13.41,9.01C527.6,220.14,533.03,221.22,538.76,221.22z"/>
	</g>
	<g>
		<path class="st0" d="M934.45,110.19c9.58,0,18.55,1.79,26.91,5.36c8.36,3.57,15.67,8.49,21.95,14.76
			c6.27,6.27,11.19,13.58,14.76,21.95s5.36,17.33,5.36,26.91c0,9.58-1.79,18.55-5.36,26.91s-8.49,15.68-14.76,21.95
			c-6.27,6.27-13.58,11.19-21.95,14.76c-8.36,3.57-17.33,5.36-26.91,5.36c-9.58,0-18.55-1.78-26.91-5.36
			c-8.36-3.57-15.68-8.49-21.95-14.76c-6.27-6.27-11.19-13.59-14.76-21.95c-3.57-8.36-5.36-17.33-5.36-26.91
			c0-9.58,1.78-18.55,5.36-26.91c3.57-8.36,8.49-15.67,14.76-21.95c6.27-6.27,13.59-11.19,21.95-14.76
			C915.9,111.97,924.87,110.19,934.45,110.19z M934.58,221.22c5.73,0,11.15-1.09,16.28-3.27c5.12-2.17,9.59-5.18,13.41-9.01
			c3.82-3.83,6.81-8.32,8.98-13.46c2.17-5.13,3.26-10.58,3.26-16.33c0-5.75-1.08-11.19-3.26-16.33c-2.17-5.14-5.17-9.62-8.98-13.46
			c-3.82-3.83-8.29-6.83-13.41-9.01c-5.12-2.18-10.55-3.27-16.28-3.27c-5.73,0-11.16,1.09-16.28,3.27
			c-5.12,2.18-9.59,5.18-13.41,9.01c-3.82,3.83-6.86,8.32-9.12,13.46c-2.26,5.14-3.38,10.58-3.38,16.33c0,5.75,1.13,11.2,3.38,16.33
			c2.26,5.14,5.29,9.63,9.12,13.46c3.82,3.83,8.29,6.84,13.41,9.01C923.42,220.14,928.85,221.22,934.58,221.22z"/>
	</g>
	<g>
		<path class="st0" d="M1144.25,110.71v78.12c0,10.45-2.42,20.03-7.26,28.74c-4.84,8.71-11.39,15.76-19.65,21.16
			c-4.86,3.13-10.06,5.58-15.61,7.31c-5.55,1.74-11.36,2.61-17.44,2.61c-6.07,0-11.88-0.87-17.44-2.61
			c-5.55-1.74-10.75-4.18-15.61-7.31c-8.09-5.4-14.6-12.45-19.53-21.16c-4.92-8.71-7.39-18.29-7.39-28.74v-78.12h26.91v28.22v49.9
			c0,4.53,0.86,8.8,2.6,12.8c1.73,4.01,4.08,7.49,7.02,10.45c2.95,2.96,6.46,5.32,10.54,7.06c4.08,1.74,8.37,2.61,12.88,2.61
			c4.51,0,8.76-0.87,12.75-2.61c3.99-1.74,7.5-4.09,10.54-7.06c3.04-2.96,5.42-6.44,7.16-10.45c1.73-4,2.6-8.27,2.6-12.8v-49.9
			v-28.22H1144.25z"/>
	</g>
	<g>
		<path class="st0" d="M1242.39,184.38c2.44,3.49,4.35,7.27,5.75,11.36c1.39,4.09,2,8.41,1.83,12.93
			c-0.18,5.75-1.48,11.06-3.92,15.94c-2.44,4.88-5.66,9.15-9.67,12.8c-4.01,3.66-8.71,6.49-14.11,8.49c-5.4,2-11.06,2.91-16.98,2.74
			c-8.36-0.35-15.9-2.52-22.6-6.53c-6.71-4.01-11.8-9.31-15.28-15.94l22.47-15.68c0.87,3.14,2.78,5.79,5.75,7.97
			c2.96,2.18,6.44,3.27,10.45,3.27c4.53,0.17,8.49-1.09,11.89-3.79c3.4-2.7,5.09-6.05,5.09-10.06c0-1.22-0.09-2.09-0.26-2.61v-0.52
			c-0.18-0.35-0.26-0.65-0.26-0.91s-0.09-0.56-0.26-0.91c-1.22-2.96-3.49-5.4-6.79-7.32c-0.52-0.35-1.31-0.69-2.35-1.04l0.26-0.26
			c-2.44-1.39-5.14-2.74-8.1-4.05c-2.96-1.31-5.97-2.7-9.01-4.18c-3.05-1.48-6.05-3.04-9.01-4.7c-2.96-1.65-5.75-3.61-8.36-5.88
			v-0.26l-0.78-0.78c-3.66-3.48-6.53-7.53-8.62-12.15c-2.09-4.61-3.05-9.54-2.87-14.76c0.17-5.23,1.39-10.1,3.66-14.63
			c2.26-4.53,5.27-8.45,9.01-11.76c3.74-3.31,8.14-5.92,13.19-7.84c5.05-1.91,10.45-2.78,16.2-2.61c7.49,0.35,14.24,2.18,20.25,5.49
			c6.01,3.31,10.75,7.75,14.24,13.32l-21.95,15.15c-1.05-1.91-2.75-3.57-5.1-4.96c-2.35-1.39-5.01-2.09-7.97-2.09
			c-4.01-0.17-7.45,0.78-10.32,2.87c-2.87,2.09-4.31,4.62-4.31,7.58c0,0.87,0.08,1.48,0.26,1.83c0.35,1.92,1.22,3.57,2.61,4.96
			c1.39,1.4,3.13,2.53,5.22,3.4c3.31,1.92,7.1,3.88,11.36,5.88c4.27,2.01,8.58,4.23,12.93,6.66c3.14,1.4,6.27,3.4,9.41,6.01
			l1.31,1.31C1238.39,179.68,1240.3,181.77,1242.39,184.38z"/>
	</g>
	<g>
		<path class="st0" d="M442.92,152.51c-3.57-8.36-8.49-15.67-14.76-21.95c-6.27-6.27-13.58-11.19-21.95-14.76
			c-8.36-3.57-17.33-5.35-26.91-5.35c-8.01,0-15.59,1.27-22.73,3.79c-2.9,1.03-5.69,2.23-8.39,3.58v33.53
			c0.52-0.57,1.01-1.16,1.56-1.71c3.82-3.83,8.29-6.83,13.41-9.02c5.12-2.17,10.55-3.26,16.28-3.26c5.73,0,11.15,1.09,16.28,3.26
			c5.12,2.18,9.59,5.19,13.42,9.02c3.82,3.83,6.81,8.32,8.98,13.46c2.17,5.14,3.26,10.58,3.26,16.33c0,5.75-1.08,11.19-3.26,16.33
			c-2.17,5.14-5.17,9.63-8.98,13.46c-3.82,3.83-8.29,6.84-13.42,9.01c-5.12,2.18-10.55,3.27-16.28,3.27
			c-5.73,0-11.16-1.09-16.28-3.27c-5.12-2.17-9.59-5.18-13.41-9.01c-3.82-3.83-6.86-8.32-9.12-13.46
			c-2.26-5.14-3.38-10.58-3.38-16.33v-0.26c0-3.54,0-160.94,0-160.94h-26.91v160.94v0.26c0,9.58,1.78,18.55,5.36,26.91
			c3.57,8.36,8.49,15.68,14.76,21.95c6.27,6.27,13.59,11.19,21.95,14.76c8.36,3.57,17.33,5.36,26.91,5.36
			c9.58,0,18.55-1.78,26.91-5.36c8.36-3.57,15.67-8.49,21.95-14.76c6.27-6.27,11.19-13.59,14.76-21.95
			c3.57-8.36,5.36-17.33,5.36-26.91C448.28,169.84,446.49,160.87,442.92,152.51z"/>
	</g>
	<g>
		<path class="st0" d="M836.64,140.88c-4.88-8.79-11.41-15.89-19.59-21.29c-4.7-3.13-9.89-5.57-15.55-7.31
			c-5.66-1.74-11.54-2.61-17.64-2.61c-6.1,0-11.98,0.87-17.64,2.61c-5.66,1.74-10.93,4.18-15.81,7.31
			c-5.05,3.49-9.5,7.67-13.33,12.54c-0.06-0.08-0.13-0.15-0.2-0.23v-0.52c-0.07,0.09-0.15,0.18-0.22,0.26
			c-0.08-0.09-0.15-0.17-0.22-0.26v0.52c-0.07,0.08-0.13,0.15-0.2,0.23c-3.83-4.87-8.27-9.05-13.33-12.54
			c-4.87-3.13-10.14-5.57-15.81-7.31c-5.66-1.74-11.53-2.61-17.64-2.61c-6.09,0-11.97,0.87-17.64,2.61
			c-5.66,1.74-10.84,4.18-15.55,7.31c-8.18,5.4-14.72,12.5-19.59,21.29c-4.88,8.8-7.32,18.42-7.32,28.87v78.64h26.91v-28.22v-50.42
			c0-4.53,0.87-8.79,2.61-12.8c1.74-4,4.14-7.53,7.18-10.58c3.05-3.05,6.58-5.44,10.58-7.18c4.01-1.74,8.27-2.61,12.8-2.61
			c4.53,0,8.84,0.87,12.93,2.61c4.09,1.74,7.67,4.14,10.71,7.18c3.05,3.05,5.45,6.58,7.18,10.58c1.74,4.01,2.61,8.28,2.61,12.8
			v50.42v28.22h13.52h0.45h13.52v-28.22v-50.42c0-4.53,0.87-8.79,2.61-12.8c1.74-4,4.13-7.53,7.18-10.58
			c3.04-3.05,6.62-5.44,10.71-7.18c4.09-1.74,8.4-2.61,12.93-2.61c4.53,0,8.79,0.87,12.8,2.61c4.01,1.74,7.53,4.14,10.58,7.18
			c3.04,3.05,5.44,6.58,7.18,10.58c1.74,4.01,2.61,8.28,2.61,12.8v50.42v28.22h26.91v-78.64
			C843.95,159.3,841.51,149.68,836.64,140.88z"/>
	</g>
	<g>
		<g>
			<g>
				<path class="st1" d="M246.53,135.64c8.8,0,15.96,7.16,15.96,15.96v55.9c0,8.8-7.16,15.96-15.96,15.96h-75.49
					c-8.8,0-15.96-7.16-15.96-15.96v-55.9c0-8.8,7.16-15.96,15.96-15.96H246.53 M246.53,110.72h-75.49
					c-22.58,0-40.88,18.3-40.88,40.88v55.9c0,22.58,18.3,40.88,40.88,40.88h75.49c22.58,0,40.88-18.3,40.88-40.88v-55.9
					C287.41,129.03,269.11,110.72,246.53,110.72L246.53,110.72z"/>
			</g>
		</g>
		<g>
			<g>
				<g>
					<rect x="171.68" y="162.7" class="st1" width="20.55" height="33.11"/>
				</g>
				<g>
					<rect x="225.34" y="162.7" class="st1" width="20.55" height="33.11"/>
				</g>
			</g>
		</g>
		<g>
			<g>
				<path class="st1" d="M208.78,96.02c-19.2,0-34.83-15.62-34.83-34.83c0-19.2,15.62-34.83,34.83-34.83
					c19.2,0,34.83,15.62,34.83,34.83C243.61,80.4,227.99,96.02,208.78,96.02z M208.78,46.92c-7.87,0-14.27,6.4-14.27,14.27
					s6.4,14.27,14.27,14.27c7.87,0,14.27-6.4,14.27-14.27S216.65,46.92,208.78,46.92z"/>
			</g>
		</g>
	</g>
</g>
</svg>
